<?xml version="1.0" encoding="UTF-8"?>
<svg width="235px" height="75px" viewBox="0 0 235 75" version="1.1" xmlns="http://www.w3.org/2000/svg" xmlns:xlink="http://www.w3.org/1999/xlink" style="background: #FFFFFF;">
    <!-- Generator: Sketch 48.2 (47327) - http://www.bohemiancoding.com/sketch -->
    <title>Artboard 2</title>
    <desc>Created with Sketch.</desc>
    <defs></defs>
    <g id="Welcome" stroke="none" stroke-width="1" fill="none" fill-rule="evenodd">
        <g id="Artboard-2">
            <g id="Group-3" transform="translate(3.000000, 2.000000)">
                <g id="Group" transform="translate(105.000000, 3.000000)" stroke="#000000" stroke-width="5">
                    <path d="M4.54394531,12.7581042 L4.54394531,57.3592097" id="Line" stroke-linecap="square"></path>
                    <path d="M18.1757813,22.8532609 L18.1757813,57.8706622" id="Line" stroke-linecap="square"></path>
                    <path d="M33.3222656,22.8532609 L33.3222656,57.8706622" id="Line" stroke-linecap="square"></path>
                    <path d="M5.5,11.5 L27.2636719,0.956521739" id="Line" stroke-linecap="square"></path>
                    <path d="M33.3600633,61.5652174 L4.5,61.5652174" id="Line" stroke-linecap="square"></path>
                    <path d="M44.9638672,0.946289062 C39.2664923,0.469973284 36.3958642,2.35853321 36.3519828,6.61196883 C36.3081013,10.8654045 39.1787295,12.7711154 44.9638672,12.3291016" id="Path-2"></path>
                </g>
                <polygon id="Rectangle-6" fill="#000000" transform="translate(209.565699, 34.781089) rotate(30.000000) translate(-209.565699, -34.781089) " points="182.065699 31.2810889 233.173483 31.2810889 237.065699 38.2810889 185.957914 38.2810889"></polygon>
                <g id="Group-2" stroke="#000000" stroke-width="5">
                    <path d="M14.7414723,8.19400363 C12.0151,25.3609428 -1.4448507,48.7958141 4.50011116,60.8903071 C7.71686738,67.4345098 15.0393116,70.0304741 29.6174928,69.9997304 C44.195674,69.9689866 51.9930805,67.8827714 54.2857422,60.09859 C58.9506195,44.2601214 39.0855698,22.1569988 43.1187253,4" id="Path-6"></path>
                    <path d="M45.099386,16 C51.8922842,12.3035226 54.5695792,16.2004993 55.8858956,7.80123027 C57.2022121,-0.598038734 46.695309,0.756723799 46.695309,0.756723799 C46.695309,0.756723799 25.7451172,0.756723799 6.88769531,0.756723799 C1.39861211,0.756723799 -0.50892981,5.30586002 0.251587535,9.00299827 C1.01239696,12.7015564 4.99292703,15.1752499 12.6266362,13.0785186 L15.1785377,7.31516145" id="Path-7"></path>
                    <path d="M10.4390394,22.4375 L52.4126847,46.375" id="Path-4"></path>
                    <path d="M6.54353714,39.4938965 L50.5625,65.55" id="Path-5"></path>
                    <path d="M20.6565271,29.75 L17.8780788,47.25" id="Path-8"></path>
                    <path d="M43.6318966,42.375 L40.8780788,58.375" id="Path-10"></path>
                    <path d="M31.1442118,36 L28.8780788,53.25" id="Path-9"></path>
                </g>
            </g>
        </g>
    </g>
</svg>